<svg version="1.1" xmlns="http://www.w3.org/2000/svg" xmlns:xlink="http://www.w3.org/1999/xlink" width="72.76716" height="123.15845" viewBox="0,0,72.76716,123.15845"><g transform="translate(-203.61642,-107.83234)"><g data-paper-data="{&quot;isPaintingLayer&quot;:true}" stroke-linejoin="miter" stroke-miterlimit="10" stroke-dasharray="" stroke-dashoffset="0" style="mix-blend-mode: normal"><path d="" data-paper-data="{&quot;index&quot;:null}" fill="#fd96ff" fill-rule="nonzero" stroke="none" stroke-width="0" stroke-linecap="butt"/><path d="M205.36642,179.89142c0,-24.34079 8.71863,-50.88212 34.63358,-50.88212c25.91494,0 34.63358,26.54133 34.63358,50.88212c0,24.34079 -8.71864,35.81349 -34.63358,35.81349c-25.91494,0 -34.63358,-11.47269 -34.63358,-35.81349z" data-paper-data="{&quot;index&quot;:null}" fill="#ffe299" fill-rule="nonzero" stroke="#260e00" stroke-width="3.5" stroke-linecap="butt"/><path d="M260.75,185.88187l13.125,-11.125" data-paper-data="{&quot;index&quot;:null}" fill="none" fill-rule="nonzero" stroke="#260e00" stroke-width="3.5" stroke-linecap="round"/><path d="M249.42383,230.97c-2.69688,0 -4.88312,-1.11197 -4.88312,-3.80884c0,-2.69688 2.18625,-4.88312 4.88312,-4.88312c2.69688,0 4.88312,2.18625 4.88312,4.88312c0,2.69688 -2.18625,3.80884 -4.88312,3.80884z" data-paper-data="{&quot;index&quot;:null}" fill="#260e00" fill-rule="nonzero" stroke="none" stroke-width="0" stroke-linecap="butt"/><g data-paper-data="{&quot;index&quot;:null}" fill-rule="nonzero"><path d="M245.65606,174.01309c0,-2.45287 2.68784,-3.39218 5.14071,-3.39218c2.45287,0 5.14072,0.93931 5.14072,3.39218c0,2.45286 -2.68785,3.53205 -5.14072,3.53205c-2.45286,0 -5.14071,-1.07919 -5.14071,-3.53205z" data-paper-data="{&quot;index&quot;:null}" fill-opacity="0.4" fill="#ff99b8" stroke="none" stroke-width="0" stroke-linecap="butt"/><path d="M224.06251,173.96764c0,-2.45285 2.68786,-3.39217 5.14072,-3.39217c2.45285,0 5.14072,0.93931 5.14072,3.39217c0,2.45286 -2.68785,3.53206 -5.14072,3.53206c-2.45286,0 -5.14072,-1.07919 -5.14072,-3.53206z" data-paper-data="{&quot;index&quot;:null}" fill-opacity="0.4" fill="#ff99b8" stroke="none" stroke-width="0" stroke-linecap="butt"/><path d="M244.13802,174.238c-2.42521,2.44668 -6.2775,2.18626 -8.27605,0" data-paper-data="{&quot;index&quot;:null}" fill="none" stroke="#260e00" stroke-width="3" stroke-linecap="round"/><path d="M242.37831,160.77588c0,-4.17438 0.32848,-7.55838 4.50287,-7.55838c4.17438,0 4.483,3.384 4.483,7.55838c0,4.17438 -0.30862,7.55838 -4.483,7.55838c-4.17437,0 -4.50287,-3.384 -4.50287,-7.55838z" data-paper-data="{&quot;index&quot;:null}" fill="#fff066" stroke="#260e00" stroke-width="2" stroke-linecap="butt"/><path d="M233.1188,168.33426c-4.17438,0 -4.48299,-3.384 -4.48299,-7.55838c0,-4.17438 0.30861,-7.55838 4.48299,-7.55838c4.17439,0 4.50287,3.384 4.50287,7.55838c0,4.17438 -0.32849,7.55838 -4.50287,7.55838z" data-paper-data="{&quot;index&quot;:null}" fill="#fff066" stroke="#260e00" stroke-width="2" stroke-linecap="butt"/></g><path d="M249.41095,216.22155v10.29037" data-paper-data="{&quot;index&quot;:null}" fill="none" fill-rule="nonzero" stroke="#260e00" stroke-width="3.5" stroke-linecap="round"/><path d="M230.48203,230.99079c-2.69688,0 -4.88312,-1.11197 -4.88312,-3.80884c0,-2.69688 2.18625,-4.88312 4.88312,-4.88312c2.69688,0 4.88312,2.18625 4.88312,4.88312c0,2.69688 -2.18625,3.80884 -4.88312,3.80884z" data-paper-data="{&quot;index&quot;:null}" fill="#260e00" fill-rule="nonzero" stroke="none" stroke-width="0" stroke-linecap="butt"/><path d="M230.46915,226.5327v-10.29037" data-paper-data="{&quot;index&quot;:null}" fill="none" fill-rule="nonzero" stroke="#260e00" stroke-width="3.5" stroke-linecap="round"/><path d="M206.29518,174.78029l13.125,11.125" data-paper-data="{&quot;index&quot;:null}" fill="none" fill-rule="nonzero" stroke="#260e00" stroke-width="3.5" stroke-linecap="round"/><g fill-rule="evenodd" stroke="none" stroke-width="1" stroke-linecap="butt"><path d="M239.59528,133.19734l25.20498,4.68999c0,0 3.91809,0.91987 0.83134,5.0028c-0.0156,0.0704 -3.20016,4.46698 -3.94718,5.9408c0.10708,-0.3419 -1.90466,3.26508 -5.40287,3.12765c0.02487,-0.06281 -8.03222,-0.92957 -16.68584,-0.93842h-0.14586c-8.65362,0.00927 -16.71113,0.87603 -16.68584,0.93842c-3.49779,0.13743 -5.50995,-3.46996 -5.40287,-3.12765c-0.74745,-1.47382 -3.93159,-5.8704 -3.9476,-5.9408c-3.08633,-4.08251 0.83134,-5.0028 0.83134,-5.0028z" fill="#f5c850"/><path d="M232.12628,110.70687l0.29341,-1.69093c0,0 7.59927,-2.80894 14.61044,0.22765c-0.10581,-0.0215 0.00801,0.28751 0.21627,1.62853c7.26032,2.29462 16.93119,8.77714 16.93119,30.2044c0.00927,-0.00927 0.01686,-0.01265 0.02319,-0.01054c0.21837,0.05944 -1.19305,6.09467 -24.17128,6.09467c0,0.00253 -21.52718,0.27529 -25.16282,-6.08413c0,0 -1.96959,-25.18137 17.2596,-30.36966z" fill="#f3be32"/><path d="M249.15485,111.39993c0.50336,6.08413 -0.97973,14.23945 -1.02484,15.01388c-0.21332,-4.93577 -0.66313,-13.12861 -0.83556,-15.69767c0.60622,0.19308 1.22804,0.41946 1.8604,0.68379zM248.13001,126.41382l0.00337,0.06703c-0.00379,-0.01138 -0.00379,-0.03415 -0.00337,-0.06703z" fill="#f2b71a"/><path d="M235.1557,142.59124c-0.03878,0.08769 -0.07968,0.17495 -0.1172,0.25927c0.12816,0.03288 0.2736,0.0763 0.42284,0.12268c0.10329,-0.10329 0.17622,-0.22976 0.22385,-0.38194zM236.69191,142.20887v0.38237h-0.48228c-0.01476,0.01349 -0.04005,0.0274 -0.07293,0.03077c-0.06366,0.19308 -0.15008,0.35707 -0.26053,0.49324c0.26053,0.09823 0.51052,0.20531 0.69138,0.30269l-0.33768,0.32756c-0.16568,-0.10118 -0.41398,-0.22175 -0.69011,-0.33304c-0.29257,0.17495 -0.65386,0.27824 -1.09187,0.33304c-0.03415,-0.09865 -0.13448,-0.26517 -0.20025,-0.34906c0.31154,-0.0274 0.57966,-0.0763 0.7993,-0.16399c-0.0548,-0.01939 -0.11298,-0.03878 -0.16736,-0.05438l-0.0215,0.04342l-0.41483,-0.10624c0.0763,-0.14418 0.1661,-0.32714 0.25927,-0.52401h-0.55732v-0.38194h0.72679c0.06028,-0.12942 0.11467,-0.25927 0.16357,-0.38068h-0.42663v0.30775h-0.39122v-0.69054h0.94938v-0.28667l0.53455,0.02403c-0.00211,0.02361 -0.02698,0.03836 -0.08853,0.04427v0.21837h1.00545v0.69011h-0.44729v-0.30775h-1.02358l0.39923,0.06661c-0.00801,0.03204 -0.03415,0.04679 -0.09443,0.04679c-0.03668,0.08642 -0.07968,0.17369 -0.1231,0.26728h1.36126z" fill="#666666"/><path d="M238.83434,142.05416c-0.26264,-0.18381 -0.50294,-0.3967 -0.65512,-0.58894c-0.15134,0.19392 -0.37731,0.4026 -0.63784,0.58894zM239.15178,143.07267h-0.74703v0.29004h1.00208v0.3655h-2.40887v-0.3655h0.95992v-0.29004h-0.73691v-0.36382h0.73691v-0.29004h-0.58556v-0.24198c-0.09823,0.0645 -0.19898,0.12816 -0.30269,0.18507c-0.05227,-0.0978 -0.16399,-0.25084 -0.25041,-0.33009c0.48017,-0.22385 0.93125,-0.63067 1.13277,-0.92409l0.55268,0.02276c-0.01138,0.02066 -0.03878,0.03541 -0.08389,0.03878c0.27023,0.34653 0.73691,0.66651 1.153,0.8208c-0.10371,0.10118 -0.19224,0.24367 -0.26854,0.36888c-0.09654,-0.05143 -0.19434,-0.11425 -0.29215,-0.17622v0.2365h-0.60833v0.29004h0.74703v0.36382z" fill="#666666"/><path d="M240.7487,142.75818v-0.17032h-0.37436l-0.02487,0.17032zM240.41608,141.88553h0.66735c-0.07799,-0.06914 -0.20784,-0.15893 -0.29552,-0.20994c0.02529,-0.02192 0.04637,-0.04553 0.07167,-0.06956h-0.28414c0.03415,0.06028 0.06155,0.11762 0.07841,0.16526zM240.29677,141.88595c-0.03077,-0.08389 -0.08094,-0.18591 -0.13406,-0.2795h-0.00379c-0.06324,0.10244 -0.13617,0.19814 -0.2091,0.2795zM241.58679,142.32143v-0.17032h-0.44687v0.17032zM241.34185,141.60645c-0.07504,0.10455 -0.15261,0.20109 -0.23313,0.2795h0.48017c-0.03836,-0.08136 -0.10329,-0.18591 -0.16947,-0.2795zM242.27563,141.34043v0.26559h-0.4241c0.03752,0.06028 0.0704,0.11762 0.0919,0.16526l-0.27234,0.11425h0.30606v0.70192h-0.83682v0.17032h0.70613l0.08769,-0.00801l0.22723,0.02614c-0.00211,0.02361 -0.00548,0.05733 -0.01349,0.08431c-0.04216,0.70403 -0.09232,0.76979 -0.6859,0.75841c-0.00632,-0.11973 -0.05312,-0.27444 -0.11551,-0.37773c0.10329,0.01265 0.20235,0.01265 0.25126,0.01265c0.09528,0 0.11467,-0.04131 0.13659,-0.22976h-0.59357v0.70613h-0.39164v-0.50167c-0.22849,0.21079 -0.51263,0.38152 -0.80057,0.4827c-0.05565,-0.09232 -0.17074,-0.24325 -0.25337,-0.31955c0.26137,-0.07504 0.52992,-0.20488 0.73902,-0.36719h-0.16146l-0.01476,0.05438l-0.40724,-0.0489c0.06703,-0.16947 0.14544,-0.49956 0.19224,-0.70866h0.70613v-0.17032h-0.81406v-0.25589l-0.03457,0.0274c-0.07504,-0.05818 -0.215,-0.15682 -0.3069,-0.20826c0.17622,-0.15092 0.34653,-0.37183 0.43886,-0.59821l0.41862,0.13195c-0.0097,0.02192 -0.03668,0.03541 -0.07673,0.03204c-0.00759,0.01939 -0.01939,0.04131 -0.03035,0.06071h0.57292v0.21711c0.1172,-0.11635 0.21711,-0.27739 0.27866,-0.44139c0.14165,0.04131 0.28414,0.08221 0.44813,0.12647c-0.0118,0.0215 -0.03878,0.03499 -0.07546,0.03162c-0.00885,0.02276 -0.02066,0.04427 -0.03288,0.06619z" fill="#666666"/><path d="M242.47925,142.64562v-0.43675h2.62345v0.43675z" fill="#666666"/><path d="M214.84349,137.90251c0.01855,-0.83935 0.06408,-1.82667 0.15598,-2.91981c1.05899,0.54383 5.0087,2.16477 14.8482,2.44301c-0.05354,0.12183 0.00801,2.82243 0.00801,2.82243c0,0 -10.59327,0 -15.0122,-2.34563zM229.84768,137.42571c0.00211,-0.00548 0.00464,-0.00548 0.00801,0zM215.20394,133.04262c0.11382,-0.89416 0.26095,-1.833 0.44729,-2.80177c1.67617,0.68801 5.78187,1.90719 14.19645,2.1458c-0.05354,0.12183 0.00801,2.82243 0.00801,2.82243c0,0 -10.04396,-0.00084 -14.65175,-2.16646zM229.84768,132.38665c0.00211,-0.0059 0.00464,-0.0059 0.00801,0z" fill="#6b843e"/><path d="M249.19701,137.40843c9.49297,-0.27149 13.48484,-1.80855 14.68801,-2.40212c0.08937,0.93758 0.15809,1.90846 0.20193,2.91475c-4.44084,2.32708 -14.89795,2.32708 -14.89795,2.32708c0,0 0.06155,-2.71661 0.00801,-2.83971zM249.19701,137.40885h-0.00801c0.00337,-0.0059 0.0059,-0.0059 0.00801,0zM263.66285,133.05864c-4.64657,2.11882 -14.47385,2.12009 -14.47385,2.12009c0,0 0.06155,-2.71703 0.00801,-2.83971c8.14731,-0.23313 12.24162,-1.39793 13.99958,-2.09817c0.17875,0.90006 0.33431,1.83848 0.46626,2.81779zM249.19701,132.3386h-0.00801c0.00337,-0.00548 0.0059,-0.00548 0.00801,0z" fill="#6b843e"/><path d="M241.00122,128.3071v4.09431h4.09347v2.72926h-4.09347v4.09389h-2.72968v-4.09389h-4.09431v-2.72926h4.09431v-4.09431z" fill="#6b843e"/></g></g></g></svg>