<?xml version="1.0" standalone="no"?>
<!DOCTYPE svg PUBLIC "-//W3C//DTD SVG 1.1//EN" "http://www.w3.org/Graphics/SVG/1.1/DTD/svg11.dtd">
<svg xmlns="http://www.w3.org/2000/svg" xmlns:xlink="http://www.w3.org/1999/xlink" version="1.1" width="110.19999694824219" height="28.049999237060547" viewBox="0,0,110.2,28.05"><g transform="translate(-184.9,-165.975)"><g stroke-miterlimit="10"><path d="M184.9,194.025v-28.05h110.2v28.05z" fill="none" stroke="none" stroke-width="NaN" stroke-linecap="butt"/><g><path d="M190.659,184.74034c0,-5.43841 1.84671,-9.84711 6.65,-9.84711c4.80329,0 6.65,4.4087 6.65,9.84711c0,5.43841 -2.66537,6.65 -6.65,6.65c-3.98463,0 -6.65,-1.21159 -6.65,-6.65z" fill="#f7f7cb" stroke="none" stroke-width="1" stroke-linecap="butt"/><path d="M190.659,184.74034c0,-5.43841 1.84671,-9.84711 6.65,-9.84711c4.80329,0 6.65,4.4087 6.65,9.84711c0,5.43841 -2.66537,6.65 -6.65,6.65c-3.98463,0 -6.65,-1.21159 -6.65,-6.65z" fill="#ffffff" stroke="#000000" stroke-width="0.5" stroke-linecap="butt"/><g stroke-linecap="butt"><path d="M194.90275,181.65147c0,-0.75749 0.18095,-1.51594 0.93844,-1.51594c0.75749,0 0.89031,0.75845 0.89031,1.51594c0,0.75749 -0.13282,1.37156 -0.89031,1.37156c-0.75749,0 -0.93844,-0.61407 -0.93844,-1.37156z" fill="#f7c7b2" stroke="none" stroke-width="1"/><path d="M194.90275,181.65147c0,-0.75749 0.18095,-1.51594 0.93844,-1.51594c0.75749,0 0.89031,0.75845 0.89031,1.51594c0,0.75749 -0.13282,1.37156 -0.89031,1.37156c-0.75749,0 -0.93844,-0.61407 -0.93844,-1.37156z" fill="#ffffff" stroke="#000000" stroke-width="0.5"/></g><g stroke-linecap="butt"><path d="M197.8865,181.65147c0,-0.75749 0.18095,-1.51594 0.93844,-1.51594c0.75749,0 0.89031,0.75845 0.89031,1.51594c0,0.75749 -0.13282,1.37156 -0.89031,1.37156c-0.75749,0 -0.93844,-0.61407 -0.93844,-1.37156z" fill="#f7c7b2" stroke="none" stroke-width="1"/><path d="M197.8865,181.65147c0,-0.75749 0.18095,-1.51594 0.93844,-1.51594c0.75749,0 0.89031,0.75845 0.89031,1.51594c0,0.75749 -0.13282,1.37156 -0.89031,1.37156c-0.75749,0 -0.93844,-0.61407 -0.93844,-1.37156z" fill="#ffffff" stroke="#000000" stroke-width="0.5"/></g><path d="M196.184,184.92303c0,-0.62132 0.50368,-0.8125 1.125,-0.8125c0.62132,0 1.125,0.19118 1.125,0.8125c0,0.62132 -0.50528,1 -1.125,1c-0.61972,0 -1.125,-0.37868 -1.125,-1z" fill="#ffffff" stroke="#000000" stroke-width="0.5" stroke-linecap="butt"/><path d="M203.61595,174.73181v-2.64423" fill="none" stroke="#000000" stroke-width="0.5" stroke-linecap="round"/><path d="M192.70456,176.58978c0.05837,-1.59288 0,-3.41589 0,-3.41589h9.1875c0,0 0.04811,2.70022 0,3.41589c-0.35073,1.49954 -2.90107,1.95911 -4.4375,1.95911c-1.52601,0 -4.50376,-0.25133 -4.75,-1.95911z" fill="#ffffff" stroke="none" stroke-width="0.5" stroke-linecap="butt"/><path d="M192.70456,176.58978c0.05837,-1.59288 0,-3.41589 0,-3.41589h9.1875c0,0 0.04811,2.70022 0,3.41589c-0.35073,1.49954 -2.90107,1.95911 -4.4375,1.95911c-1.52601,0 -4.50376,-0.25133 -4.75,-1.95911z" fill="none" stroke="#000000" stroke-width="0.5" stroke-linecap="butt"/><g stroke-width="0.5" stroke-linecap="butt"><path d="M191.10694,171.92962c0.6368,-0.35815 4.23622,-2.38252 5.65713,-3.18167c0.35735,-0.20097 0.8319,-0.18105 1.23874,0.04777c1.43331,0.80612 4.75138,2.67226 5.44478,3.06224c0.24914,0.14013 0.21591,0.41659 -0.0609,0.57227c-0.74592,0.41952 -4.20684,2.366 -5.52972,3.11001c-0.32091,0.18049 -0.71103,0.18052 -1.032,0c-1.33431,-0.75044 -4.84529,-2.72507 -5.57219,-3.13389c-0.25758,-0.14487 -0.33491,-0.37039 -0.14583,-0.47673z" fill="#4d4d4d" stroke="none"/><path d="M191.10694,171.92962c0.6368,-0.35815 4.23622,-2.38252 5.65713,-3.18167c0.35735,-0.20097 0.83189,-0.18105 1.23874,0.04777c1.43331,0.80612 4.75138,2.67226 5.44478,3.06224c0.24914,0.14013 0.21591,0.41659 -0.0609,0.57227c-0.74592,0.41952 -4.20683,2.36599 -5.52972,3.11001c-0.32091,0.18049 -0.71103,0.18052 -1.03201,0c-1.33431,-0.75044 -4.84529,-2.72507 -5.57219,-3.13389c-0.25758,-0.14487 -0.33491,-0.37039 -0.14583,-0.47673z" fill="#ffffff" stroke="#000000"/></g></g><g fill="none" stroke-linecap="round"><path d="M233.67594,174.32081c0,0 13.75558,-0.09085 14.7525,0c1.41458,-0.03042 -7.94366,9.41891 -7.94366,9.41891" stroke="#000000" stroke-width="5"/><path d="M235.94555,180.56226l7.14929,6.80885" stroke="#000000" stroke-width="5"/><path d="M233.67594,174.32081c0,0 13.75558,-0.09085 14.7525,0c1.41458,-0.03042 -7.94366,9.41891 -7.94366,9.41891" stroke="#ffffff" stroke-width="3.5"/><path d="M235.94555,180.56226l7.14929,6.80885" stroke="#ffffff" stroke-width="3.5"/><path d="M219.40837,172.63575c0,0 -1.33523,2.9307 -2.41793,4.40008c-1.0333,1.40232 -2.34826,2.29529 -2.34826,2.29529" stroke="#000000" stroke-width="5"/><path d="M218.50053,175.47277c0,0 7.39505,-0.41998 8.05713,0c0.69486,0.69287 -1.04663,4.6689 -3.72646,7.39846c-3.10749,3.16515 -5.57897,4.0631 -5.57897,4.0631" stroke="#000000" stroke-width="5"/><path d="M222.81279,182.28161l-2.9505,-2.3831" stroke="#000000" stroke-width="5"/><path d="M219.40153,172.6289c0,0 -1.33523,2.9307 -2.41793,4.40008c-1.0333,1.40232 -2.34826,2.29529 -2.34826,2.29529" stroke="#ffffff" stroke-width="3.5"/><path d="M218.49369,175.46593c0,0 7.39505,-0.41998 8.05713,0c0.69486,0.69287 -1.04663,4.6689 -3.72646,7.39846c-3.10749,3.16514 -5.57897,4.06309 -5.57897,4.06309" stroke="#ffffff" stroke-width="3.5"/><path d="M219.85545,179.89167l2.9505,2.38309" stroke="#ffffff" stroke-width="3.5"/><path d="M252.13048,183.10907c0,0 5.30846,-6.60241 6.01448,-6.58189c0.69282,-0.49193 9.87283,9.30543 9.87283,9.30543" stroke="#000000" stroke-width="5"/><path d="M252.36429,183.00244c0,0 5.30846,-6.60242 6.01448,-6.5819c0.69282,-0.49193 9.87283,9.30543 9.87283,9.30543" stroke="#000000" stroke-width="5"/><path d="M266.60877,177.77942l-1.7,-3.1" stroke="#000000" stroke-width="4"/><path d="M267.90874,173.77942l1.7,3.1" stroke="#000000" stroke-width="4"/><path d="M252.14769,183.05651c0,0 5.30846,-6.60241 6.01448,-6.58189c0.69282,-0.49193 9.87283,9.30543 9.87283,9.30543" stroke="#ffffff" stroke-width="3.5"/><path d="M252.38149,182.94987c0,0 5.30846,-6.60241 6.01448,-6.58189c0.69282,-0.49193 9.87283,9.30542 9.87283,9.30542" stroke="#a7f0ba" stroke-width="0"/><path d="M266.62597,177.72685l-1.7,-3.1" stroke="#ffffff" stroke-width="2.5"/><path d="M267.92598,173.72685l1.7,3.1" stroke="#ffffff" stroke-width="2.5"/><path d="M280.34102,177.53384l-4.4,-4" stroke="#000000" stroke-width="5"/><path d="M289.341,177.73384c0,0 -3.30643,4.50939 -5.48112,5.98004c-2.4302,1.64345 -8.41888,3.41996 -8.41888,3.41996" stroke="#000000" stroke-width="5"/><path d="M280.34102,177.53384l-4.4,-4" stroke="#ffffff" stroke-width="3.5"/><path d="M289.341,177.73384c0,0 -3.30644,4.50939 -5.48113,5.98004c-2.4302,1.64345 -8.41887,3.41996 -8.41887,3.41996" stroke="#ffffff" stroke-width="3.5"/></g></g></g></svg>
