<?xml version="1.0"?>
<svg width="200" height="200" viewBox="170 100 100 100" xmlns="http://www.w3.org/2000/svg" xmlns:svg="http://www.w3.org/2000/svg" version="1.1">
  <g class="layer">
    <title>Tamakoi face</title>
    <g id="svg_1" transform="translate(-203.61642,-127.25928)">
      <g data-paper-data="{&quot;isPaintingLayer&quot;:true}" fill-rule="nonzero" id="svg_2" stroke-dashoffset="0" stroke-miterlimit="10">
        <path data-paper-data="{&quot;index&quot;:null}" fill="#fd96ff" id="svg_3" stroke-width="0"/>
        <path d="m205.37,179.89c0,-24.34 8.72,-50.88 34.63,-50.88c25.91,0 34.63,26.54 34.63,50.88c0,24.34 -8.72,35.81 -34.63,35.81c-25.91,0 -34.63,-11.47 -34.63,-35.81z" data-paper-data="{&quot;index&quot;:null}" fill="#ffe299" id="svg_4" stroke="#260e00" stroke-width="3.5"/>
        <g data-paper-data="{&quot;index&quot;:null}" id="svg_5">
          <path d="m245.66,165.75c0,-2.45 2.68,-3.39 5.14,-3.39c2.45,0 5.14,0.94 5.14,3.39c0,2.46 -2.69,3.54 -5.14,3.54c-2.46,0 -5.14,-1.08 -5.14,-3.54z" data-paper-data="{&quot;index&quot;:null}" fill="#ff99b8" fill-opacity="0.4" id="svg_6" stroke-width="0"/>
          <path d="m224.06,165.71c0,-2.45 2.69,-3.39 5.14,-3.39c2.46,0 5.14,0.94 5.14,3.39c0,2.45 -2.68,3.53 -5.14,3.53c-2.45,0 -5.14,-1.08 -5.14,-3.53z" data-paper-data="{&quot;index&quot;:null}" fill="#ff99b8" fill-opacity="0.4" id="svg_7" stroke-width="0"/>
          <path d="m244.14,165.98c-2.43,2.45 -6.28,2.19 -8.28,0" data-paper-data="{&quot;index&quot;:null}" fill="none" id="svg_8" stroke="#260e00" stroke-linecap="round" stroke-width="3"/>
          <path d="m242.38,152.52c0,-4.18 0.33,-7.56 4.5,-7.56c4.18,0 4.48,3.38 4.48,7.56c0,4.17 -0.3,7.56 -4.48,7.56c-4.17,0 -4.5,-3.39 -4.5,-7.56z" data-paper-data="{&quot;index&quot;:null}" fill="#fff066" id="svg_9" stroke="#260e00" stroke-width="2"/>
          <path d="m233.12,160.08c-4.18,0 -4.48,-3.39 -4.48,-7.56c0,-4.18 0.3,-7.56 4.48,-7.56c4.17,0 4.5,3.38 4.5,7.56c0,4.17 -0.33,7.56 -4.5,7.56z" data-paper-data="{&quot;index&quot;:null}" fill="#fff066" id="svg_10" stroke="#260e00" stroke-width="2"/>
        </g>
      </g>
    </g>
  </g>
</svg>
